<svg xmlns="http://www.w3.org/2000/svg" viewBox="0 0 32 32"><title>56-Calendar - Time</title><g id="_56-Calendar_-_Time" data-name="56-Calendar - Time"><path d="M29,0H3A3,3,0,0,0,0,3V29a3,3,0,0,0,3,3H15V30H3a1,1,0,0,1-1-1V10H30v5h2V3A3,3,0,0,0,29,0ZM22,8H10V6H22Zm8,0H24V5a1,1,0,0,0-1-1H9A1,1,0,0,0,8,5V8H2V3A1,1,0,0,1,3,2H29a1,1,0,0,1,1,1Z"/><rect x="4" y="4" width="2" height="2"/><rect x="26" y="4" width="2" height="2"/><rect x="5" y="12" width="4" height="4" rx="1" ry="1"/><path d="M21,13a1,1,0,0,0-1-1H18a1,1,0,0,0-1,1v1h4Z"/><path d="M27,13a1,1,0,0,0-1-1H24a1,1,0,0,0-1,1v1h4Z"/><rect x="11" y="12" width="4" height="4" rx="1" ry="1"/><rect x="5" y="18" width="4" height="4" rx="1" ry="1"/><rect x="11" y="18" width="4" height="4" rx="1" ry="1"/><rect x="5" y="24" width="4" height="4" rx="1" ry="1"/><path d="M11,25v2a1,1,0,0,0,1,1h2V24H12A1,1,0,0,0,11,25Z"/><path d="M24,16a8,8,0,1,0,8,8A8,8,0,0,0,24,16Zm0,14a6,6,0,1,1,6-6A6,6,0,0,1,24,30Z"/><path d="M25,21H23v3a1,1,0,0,0,.29.71l2,2,1.41-1.41L25,23.59Z"/></g></svg>