<svg width="91" height="84" viewBox="0 0 91 84" fill="none" xmlns="http://www.w3.org/2000/svg">
<rect x="1.5" y="1.5" width="88" height="81" stroke="#0F8845" stroke-width="3"/>
<path d="M15.64 30.68H21.664L21.424 32H13.72L16.672 15.224H18.352L15.64 30.68ZM31.8376 18.704C32.9416 18.704 33.8856 18.92 34.6696 19.352C35.4536 19.768 36.0456 20.344 36.4456 21.08C36.8616 21.816 37.0696 22.656 37.0696 23.6C37.0696 24.032 37.0376 24.416 36.9736 24.752C36.8776 25.232 36.7816 25.664 36.6856 26.048H25.8136C25.7656 26.352 25.7416 26.64 25.7416 26.912C25.7416 28.144 26.1096 29.096 26.8456 29.768C27.5976 30.44 28.5496 30.776 29.7016 30.776C30.8056 30.776 31.7736 30.512 32.6056 29.984C33.4376 29.456 34.0456 28.744 34.4296 27.848H36.2296C35.6856 29.128 34.8136 30.176 33.6136 30.992C32.4296 31.792 31.0456 32.192 29.4616 32.192C27.8296 32.192 26.5176 31.728 25.5256 30.8C24.5496 29.856 24.0616 28.576 24.0616 26.96C24.0616 26.48 24.1096 25.976 24.2056 25.448C24.4456 24.088 24.9256 22.896 25.6456 21.872C26.3816 20.848 27.2856 20.064 28.3576 19.52C29.4296 18.976 30.5896 18.704 31.8376 18.704ZM35.2456 24.8C35.3256 24.352 35.3656 23.976 35.3656 23.672C35.3656 22.536 35.0056 21.664 34.2856 21.056C33.5656 20.448 32.6456 20.144 31.5256 20.144C30.7096 20.144 29.9256 20.32 29.1736 20.672C28.4216 21.024 27.7656 21.552 27.2056 22.256C26.6456 22.96 26.2616 23.808 26.0536 24.8H35.2456ZM17.032 66.224H22.888V68H14.848V51.272H17.032V66.224ZM24.3914 61.376C24.3914 60.032 24.6634 58.856 25.2074 57.848C25.7514 56.824 26.4954 56.032 27.4394 55.472C28.3994 54.912 29.4634 54.632 30.6314 54.632C31.7834 54.632 32.7834 54.88 33.6314 55.376C34.4794 55.872 35.1114 56.496 35.5274 57.248V54.848H37.7354V68H35.5274V65.552C35.0954 66.32 34.4474 66.96 33.5834 67.472C32.7354 67.968 31.7434 68.216 30.6074 68.216C29.4394 68.216 28.3834 67.928 27.4394 67.352C26.4954 66.776 25.7514 65.968 25.2074 64.928C24.6634 63.888 24.3914 62.704 24.3914 61.376ZM35.5274 61.4C35.5274 60.408 35.3274 59.544 34.9274 58.808C34.5274 58.072 33.9834 57.512 33.2954 57.128C32.6234 56.728 31.8794 56.528 31.0634 56.528C30.2474 56.528 29.5034 56.72 28.8314 57.104C28.1594 57.488 27.6234 58.048 27.2234 58.784C26.8234 59.52 26.6234 60.384 26.6234 61.376C26.6234 62.384 26.8234 63.264 27.2234 64.016C27.6234 64.752 28.1594 65.32 28.8314 65.72C29.5034 66.104 30.2474 66.296 31.0634 66.296C31.8794 66.296 32.6234 66.104 33.2954 65.72C33.9834 65.32 34.5274 64.752 34.9274 64.016C35.3274 63.264 35.5274 62.392 35.5274 61.4ZM47.8341 54.608C49.4341 54.608 50.7301 55.096 51.7221 56.072C52.7141 57.032 53.2101 58.424 53.2101 60.248V68H51.0501V60.56C51.0501 59.248 50.7221 58.248 50.0661 57.56C49.4101 56.856 48.5141 56.504 47.3781 56.504C46.2261 56.504 45.3061 56.864 44.6181 57.584C43.9461 58.304 43.6101 59.352 43.6101 60.728V68H41.4261V54.848H43.6101V56.72C44.0421 56.048 44.6261 55.528 45.3621 55.16C46.1141 54.792 46.9381 54.608 47.8341 54.608ZM62.2017 54.632C63.3377 54.632 64.3297 54.88 65.1777 55.376C66.0417 55.872 66.6817 56.496 67.0977 57.248V54.848H69.3057V68.288C69.3057 69.488 69.0497 70.552 68.5377 71.48C68.0257 72.424 67.2897 73.16 66.3297 73.688C65.3857 74.216 64.2817 74.48 63.0177 74.48C61.2897 74.48 59.8497 74.072 58.6977 73.256C57.5457 72.44 56.8657 71.328 56.6577 69.92H58.8177C59.0577 70.72 59.5537 71.36 60.3057 71.84C61.0577 72.336 61.9617 72.584 63.0177 72.584C64.2177 72.584 65.1937 72.208 65.9457 71.456C66.7137 70.704 67.0977 69.648 67.0977 68.288V65.528C66.6657 66.296 66.0257 66.936 65.1777 67.448C64.3297 67.96 63.3377 68.216 62.2017 68.216C61.0337 68.216 59.9697 67.928 59.0097 67.352C58.0657 66.776 57.3217 65.968 56.7777 64.928C56.2337 63.888 55.9617 62.704 55.9617 61.376C55.9617 60.032 56.2337 58.856 56.7777 57.848C57.3217 56.824 58.0657 56.032 59.0097 55.472C59.9697 54.912 61.0337 54.632 62.2017 54.632ZM67.0977 61.4C67.0977 60.408 66.8977 59.544 66.4977 58.808C66.0977 58.072 65.5537 57.512 64.8657 57.128C64.1937 56.728 63.4497 56.528 62.6337 56.528C61.8177 56.528 61.0737 56.72 60.4017 57.104C59.7297 57.488 59.1937 58.048 58.7937 58.784C58.3937 59.52 58.1937 60.384 58.1937 61.376C58.1937 62.384 58.3937 63.264 58.7937 64.016C59.1937 64.752 59.7297 65.32 60.4017 65.72C61.0737 66.104 61.8177 66.296 62.6337 66.296C63.4497 66.296 64.1937 66.104 64.8657 65.72C65.5537 65.32 66.0977 64.752 66.4977 64.016C66.8977 63.264 67.0977 62.392 67.0977 61.4Z" fill="#0F8845"/>
<path d="M73.6924 68.144C73.2764 68.144 72.9244 68 72.6364 67.712C72.3484 67.424 72.2044 67.072 72.2044 66.656C72.2044 66.24 72.3484 65.888 72.6364 65.6C72.9244 65.312 73.2764 65.168 73.6924 65.168C74.0924 65.168 74.4284 65.312 74.7004 65.6C74.9884 65.888 75.1324 66.24 75.1324 66.656C75.1324 67.072 74.9884 67.424 74.7004 67.712C74.4284 68 74.0924 68.144 73.6924 68.144Z" fill="black"/>
</svg>
