<svg width="70" height="65" viewBox="0 0 70 65" fill="none" xmlns="http://www.w3.org/2000/svg">
<path d="M11.655 51.756H17.146V54H9.156V42.1H11.655V51.756ZM25.1173 51.484L26.0523 53.048C25.0776 53.864 23.8479 54.272 22.3633 54.272C21.0939 54.272 20.0513 53.8697 19.2353 53.065C18.4193 52.2603 18.0113 51.0987 18.0113 49.58C18.0113 48.1633 18.4023 47.0187 19.1843 46.146C19.9776 45.262 21.0146 44.82 22.2953 44.82C22.9639 44.82 23.5646 44.939 24.0973 45.177C24.6299 45.415 25.0606 45.7323 25.3893 46.129C25.7179 46.5257 25.9673 46.9677 26.1373 47.455C26.3073 47.9423 26.3923 48.458 26.3923 49.002C26.3923 49.478 26.3526 49.9143 26.2733 50.311H20.3913C20.6179 51.671 21.3943 52.351 22.7203 52.351C23.6156 52.351 24.4146 52.062 25.1173 51.484ZM20.3573 48.781H24.2163C24.1823 48.1237 24.0009 47.608 23.6723 47.234C23.3436 46.86 22.9016 46.673 22.3463 46.673C21.1789 46.673 20.5159 47.3757 20.3573 48.781ZM30.6962 54H28.3162V41.216H30.6962V54ZM33.9799 47.54L33.0619 46.061C33.5265 45.6643 34.0762 45.3583 34.7109 45.143C35.3569 44.9277 36.0029 44.82 36.6489 44.82C37.9409 44.82 38.8929 45.0977 39.5049 45.653C40.1169 46.2083 40.4229 47.0357 40.4229 48.135V51.688C40.4229 52.1187 40.5815 52.334 40.8989 52.334H41.3239L41.1369 53.881C40.8989 54.0963 40.5079 54.204 39.9639 54.204C39.1819 54.204 38.6662 53.881 38.4169 53.235C37.7369 53.9263 36.8642 54.272 35.7989 54.272C34.8809 54.272 34.1272 54.034 33.5379 53.558C32.9599 53.082 32.6709 52.3793 32.6709 51.45C32.6709 50.5773 32.9939 49.9257 33.6399 49.495C34.2859 49.053 35.1302 48.832 36.1729 48.832C36.9095 48.832 37.5329 48.8887 38.0429 49.002V48.322C38.0429 47.744 37.9012 47.3417 37.6179 47.115C37.3345 46.877 36.9095 46.758 36.3429 46.758C35.4249 46.758 34.6372 47.0187 33.9799 47.54ZM38.0769 51.552V50.464C37.6235 50.3393 37.0795 50.277 36.4449 50.277C35.4135 50.277 34.8979 50.6453 34.8979 51.382C34.8979 51.7787 35.0225 52.0677 35.2719 52.249C35.5325 52.419 35.8555 52.504 36.2409 52.504C37.1022 52.504 37.7142 52.1867 38.0769 51.552ZM44.8616 46.401H44.9466C45.3659 45.857 45.8136 45.4603 46.2896 45.211C46.7656 44.9503 47.3322 44.82 47.9896 44.82C48.9302 44.82 49.6726 45.0863 50.2166 45.619C50.7719 46.1517 51.0496 46.9053 51.0496 47.88V54H48.6696V48.645C48.6696 48.0783 48.5562 47.6817 48.3296 47.455C48.1142 47.217 47.8026 47.098 47.3946 47.098C46.6012 47.098 45.8816 47.5457 45.2356 48.441V54H42.8726V45.092H44.4876L44.8616 46.401ZM59.2322 53.847V52.81C58.8808 53.1387 58.5182 53.371 58.1442 53.507C57.7702 53.6317 57.3452 53.694 56.8692 53.694C55.7132 53.694 54.7612 53.303 54.0132 52.521C53.2652 51.7277 52.8912 50.651 52.8912 49.291C52.8912 48.577 52.9988 47.931 53.2142 47.353C53.4408 46.775 53.7412 46.3103 54.1152 45.959C54.5005 45.5963 54.9255 45.3187 55.3902 45.126C55.8548 44.922 56.3365 44.82 56.8352 44.82C57.9118 44.82 58.7675 45.1827 59.4022 45.908H59.4872L59.9122 45.075H61.5272V53.371C61.5272 54.8443 61.1192 55.9323 60.3032 56.635C59.4872 57.3377 58.3652 57.689 56.9372 57.689C56.2798 57.689 55.6452 57.5927 55.0332 57.4C54.4212 57.2073 53.9112 56.958 53.5032 56.652L54.3192 54.867C55.0332 55.3883 55.9058 55.649 56.9372 55.649C57.6398 55.649 58.1952 55.5017 58.6032 55.207C59.0225 54.9123 59.2322 54.459 59.2322 53.847ZM59.1642 50.617V47.761C58.6882 47.251 58.0875 46.996 57.3622 46.996C56.7842 46.996 56.2968 47.1943 55.9002 47.591C55.5148 47.9877 55.3222 48.543 55.3222 49.257C55.3222 49.9937 55.5092 50.566 55.8832 50.974C56.2685 51.3707 56.7615 51.569 57.3622 51.569C58.1442 51.569 58.7448 51.2517 59.1642 50.617Z" fill="#464040"/>
<path d="M55.26 15H53.8V8H55.26V15ZM56.7366 8H58.9766C59.6833 8 60.3066 8.12667 60.8466 8.38C61.3933 8.63333 61.83 9.02667 62.1566 9.56C62.4833 10.0867 62.6466 10.72 62.6466 11.46C62.6466 12.2 62.4833 12.8433 62.1566 13.39C61.8366 13.93 61.4 14.3333 60.8466 14.6C60.3 14.8667 59.6766 15 58.9766 15H56.7366V8ZM58.2266 9.33V13.68H59.0766C59.7166 13.68 60.21 13.4967 60.5566 13.13C60.9033 12.7633 61.0766 12.2067 61.0766 11.46C61.0766 10.7133 60.9033 10.1733 60.5566 9.84C60.2166 9.5 59.7233 9.33 59.0766 9.33H58.2266Z" fill="#0F8845"/>
<rect x="1" y="1" width="68" height="63" rx="3" stroke="#0F8845" stroke-width="2"/>
</svg>
